<svg height="512pt" viewBox="-8 0 512 512.00104" width="512pt" xmlns="http://www.w3.org/2000/svg"><path d="m493.78125 334.6875c-4.433594-14.546875-16.640625-33.789062-49.609375-42.835938-50.421875-13.84375-97.078125-30.761718-97.078125-60.582031 0-11.613281 0-42.457031 66.394531-43.445312 37.84375-.5625 52.351563-21.820313 57.628907-34.441407 10.652343-25.46875 2.371093-56.761718-11.40625-71.152343-24.582032-25.675781-53.742188-45.894531-86.675782-60.097657-34.058594-14.6875-70.382812-22.132812-107.964844-22.132812-70.695312 0-137.1875 26.558594-187.226562 74.777344-50.199219 48.375-77.84375 112.734375-77.84375 181.222656s27.644531 132.847656 77.84375 181.222656c50.039062 48.222656 116.53125 74.777344 187.226562 74.777344 78.988282 0 153.285157-33.667969 203.847657-92.375 17.292969-20.078125 34.183593-54.375 24.863281-84.9375zm0 0" fill="#ffdf57"/><path d="m493.78125 334.6875c-4.433594-14.546875-16.640625-33.789062-49.609375-42.835938-34.476563-9.464843-67.1875-20.367187-84.433594-35.851562h-359.738281c0 68.488281 27.644531 132.847656 77.84375 181.222656 50.039062 48.222656 116.53125 74.777344 187.226562 74.777344 78.988282 0 153.285157-33.667969 203.847657-92.375 17.292969-20.078125 34.183593-54.375 24.863281-84.9375zm0 0" fill="#ffce00"/><path d="m157.546875 271.742188c-36.15625 0-65.574219 29.414062-65.574219 65.570312s29.417969 65.574219 65.574219 65.574219 65.570313-29.417969 65.570313-65.574219-29.414063-65.570312-65.570313-65.570312zm0 0" fill="#00d279"/><path d="m153.773438 240.683594c36.15625 0 65.570312-29.414063 65.570312-65.570313s-29.414062-65.574219-65.570312-65.574219-65.574219 29.417969-65.574219 65.574219 29.417969 65.570313 65.574219 65.570313zm0 0" fill="#feb133"/><path d="m319.160156 311.421875c-36.15625 0-65.570312 29.414063-65.570312 65.570313s29.414062 65.574218 65.570312 65.574218 65.574219-29.417968 65.574219-65.574218-29.417969-65.570313-65.574219-65.570313zm0 0" fill="#36c8e3"/><path d="m292.414062 164.46875c28.859376 0 52.339844-23.480469 52.339844-52.339844s-23.480468-52.339844-52.339844-52.339844c-28.863281 0-52.34375 23.480469-52.34375 52.339844s23.480469 52.339844 52.34375 52.339844zm0 0" fill="#f4664b"/></svg>