<svg height="511pt" viewBox="-23 0 511 511.99908" width="511pt" xmlns="http://www.w3.org/2000/svg"><g fill-rule="evenodd"><path d="m169.878906 222.039062c-2.375-20.648437-13.640625-51.105468-29.363281-78.34375-24.65625-42.703124-50.933594-61.308593-65.304687-53.011718-14.371094 8.296875-11.394532 40.351562 13.261718 83.058594 17.183594 29.769531 40.367188 56.847656 57.707032 67.714843 6.996093-7.457031 14.964843-13.996093 23.699218-19.417969zm0 0" fill="#e199bd"/><path d="m75.210938 90.683594c14.371093-8.296875 40.644531 10.308594 65.300781 53.011718 15.726562 27.238282 26.992187 57.695313 29.363281 78.34375 9.195312-5.707031 19.242188-10.175781 29.902344-13.167968-7.195313-33.035156-22.160156-71.46875-42.285156-106.324219-43.527344-75.394531-94.675782-105.492187-125.921876-87.453125-31.246093 18.039062-30.753906 77.382812 12.773438 152.78125 23.40625 40.539062 54.492188 77.457031 83.085938 100.128906 5.007812-9.71875 11.335937-18.648437 18.75-26.546875-17.339844-10.867187-40.523438-37.945312-57.707032-67.714843-24.65625-42.707032-27.632812-74.761719-13.261718-83.058594zm0 0" fill="#dca98a"/><path d="m199.78125 208.871094c-10.664062 2.992187-20.707031 7.460937-29.902344 13.167968-8.734375 5.421876-16.703125 11.960938-23.699218 19.417969-7.414063 7.898438-13.742188 16.828125-18.75 26.546875-5.949219 11.550782-10.035157 24.222656-11.851563 37.613282-31.304687-3.09375-49.808594 2.90625-64.304687 20.40625l33.851562 14.488281s-29.851562 5.511719-40.351562 47.011719c6.46875-4.621094 17.460937-8.859376 28.808593-11.082032-.28125 2.835938-.425781 5.699219-.425781 8.585938 0 64.605468 71.445312 116.976562 159.578125 116.976562 88.136719 0 159.582031-52.371094 159.582031-116.976562 0-3.441406-.203125-6.847656-.601562-10.214844 10.382812 2.328125 20.1875 6.261719 26.148437 10.523438-10.5-41.5-40.351562-47.011719-40.351562-47.011719l33.851562-14.492188c-14.5-17.5-33-23.5-64.304687-20.40625-1.867188-12.039062-5.570313-23.476562-10.816406-34.003906-4.914063-9.871094-11.183594-18.945313-18.558594-26.988281-6.589844-7.175782-14.0625-13.53125-22.246094-18.886719v-.003906c-9.15625-5.988281-19.203125-10.730469-29.898438-13.980469-10.777343-3.277344-22.214843-5.039062-34.066406-5.039062-10.984375 0-21.613281 1.515624-31.691406 4.347656zm32.953125 143.855468c13.386719-.015624 34.644531 2.539063 21.910156 24.605469-5.921875 10.253907-16.953125 16.464844-21.910156 16.464844s-15.984375-6.210937-21.90625-16.464844c-12.734375-22.066406 8.523437-24.621093 21.90625-24.605469zm0 0" fill="#dca98a"/><path d="m232.734375 352.726562c-13.382813-.015624-34.640625 2.539063-21.90625 24.605469 5.921875 10.253907 16.949219 16.464844 21.90625 16.464844s15.988281-6.210937 21.910156-16.464844c12.734375-22.066406-8.523437-24.621093-21.910156-24.605469zm0 0" fill="#c58965"/><path d="m302.597656 228.625c5.449219 4.171875 10.492188 8.796875 15.085938 13.808594 17.488281-10.148438 41.59375-37.992188 59.316406-68.691406 24.65625-42.707032 27.628906-74.761719 13.261719-83.058594-14.371094-8.296875-40.648438 10.308594-65.304688 53.011718-16.113281 27.90625-27.542969 59.195313-29.523437 79.847657.003906 0 .003906.003906 0 .003906 2.433594 1.585937 4.796875 3.265625 7.097656 5.027344.023438.015625.046875.03125.066406.050781zm0 0" fill="#e199bd"/><path d="m377 173.742188c-17.722656 30.699218-41.828125 58.542968-59.316406 68.691406 4.199218 4.578125 8.039062 9.492187 11.476562 14.695312 2.597656 3.9375 4.964844 8.042969 7.082032 12.292969 29.085937-22.535156 60.988281-60.15625 84.886718-101.546875 43.527344-75.394531 44.019532-134.742188 12.773438-152.78125-31.242188-18.039062-82.394532 12.058594-125.921875 87.453125-20.265625 35.101563-35.300781 73.824219-42.4375 107.015625 10.695312 3.25 20.738281 7.992188 29.894531 13.984375 1.980469-20.652344 13.410156-51.941406 29.523438-79.851563 24.652343-42.703124 50.929687-61.308593 65.300781-53.011718 14.371093 8.296875 11.394531 40.351562-13.261719 83.058594zm0 0" fill="#dca98a"/></g><path d="m438.902344 6.433594c-19.074219-11.011719-43.539063-7.808594-68.886719 9.019531-24.714844 16.40625-49.160156 44.796875-70.695313 82.09375-18.253906 31.621094-32.96875 67.421875-41.167968 99.816406-8.710938-1.871093-17.648438-2.839843-26.675782-2.839843-8.210937 0-16.335937.800781-24.28125 2.347656-8.226562-32.261719-22.898437-67.894532-41.042968-99.324219-21.535156-37.300781-45.980469-65.6875-70.695313-82.097656-25.347656-16.824219-49.8125-20.027344-68.886719-9.015625-14.253906 8.230468-23.238281 23.101562-25.976562 43.007812-.75 5.472656 3.074219 10.519532 8.542969 11.269532 5.46875.753906 10.519531-3.070313 11.269531-8.542969 1.894531-13.753907 7.332031-23.3125 16.164062-28.414063 23.8125-13.742187 70.019532 10.625 112.261719 83.792969 17.355469 30.054687 31.339844 64.050781 39.089844 94.679687-3.621094 1.324219-7.183594 2.808594-10.671875 4.457032-4.824219-20.5-14.964844-45.28125-28.078125-67.988282-12.394531-21.472656-25.882813-38.246093-39.003906-48.507812-19.992188-15.636719-33.613281-11.824219-39.957031-8.164062-6.339844 3.660156-16.449219 13.554687-12.90625 38.683593 2.324218 16.496094 10.109374 36.5625 22.507812 58.039063 15.246094 26.40625 34.660156 50.398437 51.761719 64.421875-2.421875 3.085937-4.703125 6.261719-6.824219 9.542969-25.5625-22.558594-51.824219-55.332032-71.746094-89.835938-7.300781-12.648438-13.550781-25.1875-18.566406-37.257812-2.117188-5.101563-7.972656-7.515626-13.070312-5.398438-5.101563 2.121094-7.519532 7.972656-5.398438 13.074219 5.347656 12.867187 11.980469 26.183593 19.714844 39.582031 21.84375 37.835938 51.109375 73.84375 79.375 97.898438-3.386719 7.761718-6 15.875-7.777344 24.21875-29.15625-1.273438-48.523438 6.324218-63.710938 24.652343-2.011718 2.425781-2.761718 5.660157-2.019531 8.726563.742188 3.066406 2.886719 5.601562 5.785157 6.84375l14.363281 6.148437c-10.011719 7.835938-20.925781 21.1875-26.621094 43.707031-1.03125 4.066407.589844 8.34375 4.054687 10.710938 3.464844 2.367188 8.035157 2.316406 11.453126-.121094 3.03125-2.167968 7.515624-4.300781 12.671874-6.097656 1.511719 32.792969 19.390626 63.269531 50.726563 86.242188 31.84375 23.339843 74.015625 36.195312 118.75 36.195312 36.34375 0 70.976563-8.4375 100.148437-24.398438 4.847657-2.648437 6.625-8.726562 3.976563-13.570312-2.652344-4.847656-8.730469-6.625-13.574219-3.976562-26.242187 14.355468-57.550781 21.945312-90.550781 21.945312-82.4375 0-149.511719-47.9375-149.578125-106.886719 3.542969-.34375 6.988281-.414062 10.132812-.128906 5.492188.492187 10.363282-3.554687 10.863282-9.054687s-3.554688-10.363282-9.054688-10.863282c-6.792968-.621094-14.699218-.046875-22.617187 1.429688-.550781.0625-1.09375.167968-1.617188.3125-2.433593.492187-4.859375 1.066406-7.246093 1.71875 9.84375-14.839844 22.144531-17.917969 23.371093-18.191406 4.371094-.71875 7.632813-4.214844 8.179688-8.617188.546875-4.421875-2.015625-8.648438-6.113281-10.402344l-19.796876-8.472656c9.484376-6.378906 22.792969-9.503906 45.335938-7.277344 5.351562.523438 10.167969-3.277344 10.890625-8.605468 7.15625-52.699219 52.71875-92.4375 105.988281-92.4375 52.265625 0 97.707032 38.878906 105.703125 90.433593.8125 5.246094 5.582031 8.945313 10.863281 8.417969 22.542969-2.222656 35.847657.898438 45.332032 7.28125l-19.792969 8.472656c-4.097656 1.753906-6.660156 5.980469-6.113281 10.402344.546875 4.402344 3.808594 7.898438 8.179687 8.617188 1.226563.273437 13.527344 3.351562 23.371094 18.191406-1.457031-.394532-2.925781-.765625-4.402344-1.105469-.476562-.144531-.964843-.253906-1.464843-.324219-8.898438-1.917968-17.960938-2.730468-25.613282-2.03125-5.5.5-9.554687 5.363282-9.054687 10.863282s5.367187 9.554687 10.867187 9.054687c3.96875-.359375 8.417969-.15625 12.945313.464844.015625.589843.023437 1.175781.023437 1.765625 0 11.148437-2.421875 22.152344-7.191406 32.703125-2.273438 5.03125-.039062 10.957031 4.992188 13.230469 5.035156 2.277343 10.957031.039062 13.234374-4.992188 5.464844-12.085938 8.453126-24.695312 8.902344-37.527344 3.941406 1.546875 7.347656 3.277344 9.796875 5.03125 3.414063 2.433594 7.988281 2.484375 11.453125.117188 3.464844-2.363282 5.082032-6.644532 4.054688-10.710938-5.699219-22.519531-16.609375-35.871094-26.621094-43.703125l14.359375-6.148437c2.902344-1.242188 5.042969-3.777344 5.785156-6.84375.742188-3.066406-.007812-6.300782-2.019531-8.730469-15.214844-18.363281-34.628906-25.964844-63.875-24.644531-1.625-7.019532-3.867188-13.855469-6.640625-20.457032 28.863281-24.054687 58.820313-60.648437 81.238281-99.476562 21.535156-37.300781 33.898438-72.667969 35.75-102.277344 1.898438-30.363281-7.558594-53.152344-26.632812-64.164062zm-341.769532 162.308594c-10.96875-19-18.082031-37.050782-20.023437-50.828126-1.617187-11.453124.660156-17.160156 3.101563-18.570312 2.441406-1.410156 8.527343-.527344 17.632812 6.597656 10.960938 8.570313 23.039062 23.753906 34.007812 42.753906 13.382813 23.179688 23.648438 49.253907 27.171876 68.523438-3.949219 2.746094-7.757813 5.726562-11.402344 8.9375-.84375.738281-1.65625 1.507812-2.476563 2.265625-15.15625-12.148437-33.976562-35.371094-48.011719-59.679687zm221.839844 60.765624c-1.46875-1.398437-2.960937-2.777343-4.503906-4.109374-2.683594-2.320313-5.460938-4.515626-8.316406-6.589844 3.238281-19.265625 13.835937-46.503906 27.46875-70.113282 10.96875-19 23.046875-34.183593 34.007812-42.757812 9.109375-7.125 15.191406-8.003906 17.632813-6.597656 2.441406 1.410156 4.71875 7.121094 3.101562 18.570312-1.941406 13.78125-9.054687 31.832032-20.023437 50.832032-14.644532 25.367187-34.003906 49.015624-49.367188 60.765624zm126.601563-160.15625c-1.660157 26.542969-13.109375 58.882813-33.109375 93.523438-20.4375 35.398438-47.300782 68.695312-73.375 91.269531-2.097656-3.34375-4.34375-6.601562-6.75-9.746093 17.394531-13.820313 37.714844-38.628907 53.320312-65.65625 12.398438-21.472657 20.179688-41.542969 22.507813-58.035157 3.542969-25.128906-6.566407-35.023437-12.90625-38.683593-6.34375-3.660157-19.96875-7.46875-39.957031 8.160156-13.121094 10.265625-26.609376 27.039062-39.007813 48.511718-13.210937 22.882813-23.5625 48.417969-28.3125 69.097657-3.480469-1.730469-7.035156-3.296875-10.65625-4.695313 7.703125-30.859375 21.777344-65.183594 39.308594-95.550781 20-34.640625 42.285156-60.722656 64.4375-75.433594 18.691406-12.40625 35.675781-15.375 47.828125-8.359375s18.070312 23.207032 16.671875 45.597656zm0 0"/><path d="m214.257812 442.550781c6.738282 0 13.191407-2.234375 18.476563-6.175781 5.285156 3.941406 11.742187 6.175781 18.480469 6.175781 11.21875 0 21.640625-6.183593 27.207031-16.136719 2.695313-4.820312.972656-10.914062-3.847656-13.609374-4.820313-2.691407-10.914063-.972657-13.605469 3.847656-2.035156 3.636718-5.773438 5.898437-9.753906 5.898437-3.261719 0-6.347656-1.539062-8.476563-4.089843v-17.246094c7.386719-3.398438 15.441407-10 20.566407-18.882813 6.007812-10.410156 6.890624-19.429687 2.628906-26.804687-4.980469-8.613282-15.808594-12.800782-33.078125-12.800782-.070313 0-.144531 0-.21875 0-17.289063 0-28.117188 4.1875-33.097657 12.800782-4.261718 7.375-3.378906 16.394531 2.628907 26.804687 5.128906 8.882813 13.179687 15.484375 20.566406 18.882813v17.246094c-2.128906 2.550781-5.214844 4.089843-8.476563 4.089843-3.980468 0-7.71875-2.261719-9.75-5.894531-2.695312-4.820312-8.789062-6.546875-13.609374-3.851562-4.820313 2.695312-6.542969 8.789062-3.847657 13.609374 5.5625 9.953126 15.988281 16.136719 27.207031 16.136719zm2.660157-77.046875c.585937-.492187 3.96875-2.777344 15.734375-2.777344h.1875c11.746094 0 15.125 2.285157 15.714844 2.777344.015624.523438-.121094 2.578125-2.574219 6.832032-3.90625 6.765624-10.761719 10.742187-13.246094 11.40625-2.484375-.664063-9.339844-4.644532-13.246094-11.410157-2.449219-4.25-2.585937-6.304687-2.570312-6.828125zm0 0"/><path d="m196.875 338.261719c1.695312 0 3.417969-.429688 4.992188-1.339844 4.78125-2.761719 6.421874-8.878906 3.660156-13.660156-5.34375-9.253907-15.296875-15-25.980469-15s-20.640625 5.746093-25.980469 15c-2.761718 4.78125-1.125 10.898437 3.660156 13.660156 4.78125 2.757813 10.898438 1.121094 13.660157-3.660156 1.78125-3.085938 5.097656-5 8.660156-5s6.878906 1.914062 8.660156 5c1.851563 3.207031 5.210938 5 8.667969 5zm0 0"/><path d="m294.585938 333.261719c1.851562 3.207031 5.214843 5 8.667968 5 1.699219 0 3.417969-.429688 4.992188-1.339844 4.785156-2.761719 6.421875-8.878906 3.660156-13.660156-5.339844-9.253907-15.296875-15-25.980469-15-10.683593 0-20.640625 5.746093-25.980469 15-2.761718 4.78125-1.121093 10.898437 3.660157 13.660156 4.78125 2.757813 10.898437 1.121094 13.660156-3.660156 1.78125-3.085938 5.101563-5 8.660156-5 3.5625 0 6.878907 1.914062 8.660157 5zm0 0"/><path d="m353.996094 447.507812c-4.085938 3.714844-4.386719 10.039063-.671875 14.125 1.972656 2.171876 4.683593 3.273438 7.402343 3.273438 2.398438 0 4.804688-.859375 6.722657-2.601562l.003906-.003907c4.085937-3.714843 4.386719-10.039062.671875-14.125-3.714844-4.085937-10.042969-4.382812-14.128906-.667969zm0 0"/><path d="m22.726562 89.128906v-.007812c-1.019531-5.425782-6.238281-8.992188-11.671874-7.980469-5.429688 1.019531-9 6.246094-7.984376 11.675781.902344 4.804688 5.097657 8.15625 9.816407 8.15625.609375 0 1.230469-.054687 1.855469-.171875 5.425781-1.019531 9-6.242187 7.984374-11.671875zm0 0"/></svg>