<svg height="512pt" viewBox="0 -11 512 511" width="512pt" xmlns="http://www.w3.org/2000/svg"><path d="m232.605469 214.75c0 62.160156-50.390625 112.550781-112.546875 112.550781-62.160156 0-112.550782-50.390625-112.550782-112.550781s50.390626-112.550781 112.550782-112.550781c62.15625 0 112.546875 50.390625 112.546875 112.550781zm0 0" fill="#d866d3"/><path d="m182.273438 120.953125c12.332031 18.058594 19.550781 39.886719 19.550781 63.402344 0 62.15625-50.390625 112.546875-112.550781 112.546875-23.003907 0-44.394532-6.90625-62.21875-18.753906 20.265624 29.671874 54.359374 49.152343 93.003906 49.152343 62.15625 0 112.546875-50.390625 112.546875-112.550781 0-39.152344-19.996094-73.632812-50.332031-93.796875zm0 0" fill="#c152c1"/><path d="m183.46875 195.027344c0 35.023437-28.390625 63.414062-63.410156 63.414062-35.023438 0-63.414063-28.390625-63.414063-63.414062 0-35.023438 28.390625-63.414063 63.414063-63.414063 35.019531 0 63.410156 28.390625 63.410156 63.414063zm0 0" fill="#fff"/><path d="m122.257812 187.40625c-.292968.292969-.148437.808594.367188.882812 9.132812.292969 15.316406 6.554688 15.242188 15.167969 0 10.753907-7.878907 17.746094-18.480469 17.746094-7.21875-.070313-13.699219-2.796875-16.644531-9.351563-1.175782-2.578124-.21875-4.933593 2.359374-6.039062 2.28125-.882812 4.710938-.585938 5.742188 1.695312 1.914062 3.757813 4.492188 5.226563 8.761719 5.226563 5.15625 0 8.25-3.679687 8.398437-8.539063.292969-8.175781-7.292968-9.207031-13.847656-8.394531-1.765625.21875-3.460938-.957031-4.046875-2.726562-.8125-1.914063-.074219-3.753907 1.175781-5.152344l6.996094-7.511719c.882812-1.105468 1.765625-1.84375 2.871094-2.800781h-14.875c-2.503906 0-3.164063-2.132813-3.164063-4.34375 0-2.28125.660157-4.417969 3.164063-4.417969h25.332031c2.503906 0 3.019531 1.914063 2.945313 4.417969-.074219 1.765625-1.03125 2.871094-1.988282 3.976563zm0 0" fill="#d866d3"/><path d="m350.476562 369.738281c0 62.160157-50.390624 112.546875-112.550781 112.546875-62.160156 0-112.550781-50.386718-112.550781-112.546875 0-62.160156 50.390625-112.550781 112.550781-112.550781 62.160157 0 112.550781 50.390625 112.550781 112.550781zm0 0" fill="#f96058"/><path d="m504.492188 120.558594c0 62.15625-50.390626 112.546875-112.550782 112.546875s-112.550781-50.390625-112.550781-112.546875c0-62.160156 50.390625-112.550782 112.550781-112.550782s112.550782 50.390626 112.550782 112.550782zm0 0" fill="#ffa511"/><path d="m300.140625 275.941406c12.335937 18.054688 19.550781 39.882813 19.550781 63.398438 0 62.160156-50.390625 112.550781-112.550781 112.550781-23.003906 0-44.394531-6.910156-62.214844-18.753906 20.265625 29.671875 54.355469 49.148437 93 49.148437 62.160157 0 112.550781-50.390625 112.550781-112.550781 0-39.152344-20-73.632813-50.335937-93.792969zm0 0" fill="#e94141"/><path d="m454.160156 26.761719c12.332032 18.054687 19.546875 39.882812 19.546875 63.398437 0 62.160156-50.390625 112.550782-112.550781 112.550782-23.003906 0-44.390625-6.90625-62.214844-18.753907 20.265625 29.671875 54.355469 49.152344 93 49.152344 62.160156 0 112.550782-50.390625 112.550782-112.550781 0-39.15625-20-73.632813-50.332032-93.796875zm0 0" fill="#f48500"/><path d="m301.339844 369.738281c0 35.019531-28.394532 63.410157-63.414063 63.410157-35.023437 0-63.414062-28.390626-63.414062-63.410157 0-35.023437 28.390625-63.414062 63.414062-63.414062 35.019531 0 63.414063 28.390625 63.414063 63.414062zm0 0" fill="#fff"/><path d="m455.355469 140.730469c0 35.023437-28.390625 63.414062-63.414063 63.414062-35.019531 0-63.414062-28.390625-63.414062-63.414062 0-35.023438 28.394531-63.414063 63.414062-63.414063 35.023438 0 63.414063 28.390625 63.414063 63.414063zm0 0" fill="#fff"/><g fill="#ffa511"><path d="m375.066406 201.855469c5.375 1.480469 11.03125 2.289062 16.875 2.289062 30.546875 0 56.042969-21.601562 62.0625-50.359375-17.808594 25.933594-46.191406 44.03125-78.9375 48.070313zm0 0"/><path d="m200.707031 388.195312c0-2.945312 1.398438-4.636718 2.429688-5.890624 4.347656-5.007813 9.132812-8.6875 14.289062-12.664063 4.195313-3.242187 8.539063-7.292969 8.539063-11.710937 0-4.933594-3.019532-7.730469-8.171875-7.730469-3.683594 0-6.554688 2.0625-7.511719 6.1875-.589844 2.574219-2.945312 3.386719-5.300781 3.089843-2.429688-.21875-3.683594-1.25-3.683594-3.828124.589844-9.203126 8.175781-14.0625 16.496094-14.0625 9.867187 0 18.039062 4.785156 18.039062 15.242187 0 7.730469-4.710937 12.589844-10.382812 17.230469-4.125 3.386718-8.761719 6.480468-12.296875 10.085937-.296875.296875-.296875.8125.292968.8125h19.515626c2.429687 0 3.09375 2.207031 3.09375 4.417969s-.664063 4.417969-3.09375 4.417969h-27.320313c-3.828125 0-4.933594-1.25-4.933594-5.597657zm0 0"/><path d="m241.210938 371.40625c0-14.210938 8.90625-27.023438 22.679687-30.265625 2.578125-.585937 4.933594.074219 6.332031 2.429687 1.398438 2.359376.367188 4.273438-2.207031 5.007813-6.554687 1.769531-13.625 5.820313-16.128906 12.960937 2.429687-1.839843 5.746093-2.648437 8.835937-2.648437 9.941406 0 16.421875 7.730469 16.421875 17.597656 0 10.089844-7.585937 18.042969-17.96875 18.042969-13.328125 0-17.964843-10.972656-17.964843-23.125zm10.011718 5.523438c0 4.492187 2.578125 9.722656 7.878906 9.722656 5.671876 0 8.25-5.007813 8.25-9.941406 0-5.449219-2.285156-9.28125-8.101562-9.28125-5.523438 0-8.027344 4.789062-8.027344 9.5zm0 0"/><path d="m402.472656 114.550781c2.503906 0 3.089844 2.136719 3.089844 4.34375 0 2.210938-.585938 4.492188-3.089844 4.492188h-15.246094c-1.105468 0-1.175781.371093-1.398437 1.472656l-.882813 6.257813c-.292968 1.84375.589844 2.136718 2.0625 1.84375 12.371094-2.355469 22.828126 2.574218 22.679688 16.273437-.074219 10.675781-7.507812 17.671875-18.1875 17.671875-7.21875 0-13.84375-2.796875-16.789062-9.570312-1.105469-2.433594-.441407-4.273438 2.136718-5.449219 2.429688-1.105469 4.710938-.882813 6.183594 1.398437 2.136719 3.460938 4.347656 5.300782 8.617188 5.300782 5.226562 0 8.171874-4.125 8.171874-8.910157.074219-9.058593-9.277343-11.414062-16.933593-8.617187-3.976563 1.402344-8.765625-.21875-8.027344-5.300782l1.914063-14.578124c.664062-4.9375 1.546874-6.628907 5.816406-6.628907zm0 0"/></g><path d="m350.953125 329.183594c-1.394531-3.90625-5.695313-5.941406-9.597656-4.539063-3.90625 1.398438-5.933594 5.695313-4.539063 9.597657 3.042969 8.496093 4.984375 17.410156 5.761719 26.492187 2.40625 27.953125-6.21875 55.171875-24.285156 76.640625-18.066407 21.464844-43.410157 34.613281-71.367188 37.015625-3.050781.265625-6.070312.390625-9.078125.390625-53.878906-.003906-99.875-41.386719-104.578125-96.042969-2.40625-27.953125 6.21875-55.171875 24.285157-76.636719 18.066406-21.46875 43.414062-34.617187 71.367187-37.019531 34.898437-3.011719 68.875 11.515625 90.878906 38.835938 2.601563 3.226562 7.328125 3.738281 10.558594 1.136719 3.230469-2.601563 3.738281-7.328126 1.136719-10.558594-23.609375-29.308594-59.28125-45.71875-96.558594-44.777344 3.433594-11.28125 5.175781-23 5.175781-34.96875 0-66.199219-53.855469-120.058594-120.058593-120.058594-66.199219 0-120.054688 53.859375-120.054688 120.058594s53.855469 120.058594 120.058594 120.058594c.980468 0 1.96875-.015625 2.957031-.039063-4.398437 14.453125-6.039063 29.753907-4.707031 45.257813 5.375 62.472656 57.9375 109.773437 119.527344 109.773437 3.433593 0 6.894531-.148437 10.378906-.445312 31.949218-2.75 60.917968-17.777344 81.566406-42.3125 20.648438-24.535157 30.507812-55.644531 27.757812-87.59375-.890624-10.371094-3.105468-20.554688-6.585937-30.265625zm-230.894531-9.390625c-57.921875 0-105.042969-47.121094-105.042969-105.042969s47.121094-105.039062 105.042969-105.039062c57.917968 0 105.039062 47.117187 105.039062 105.039062 0 12.582031-2.195312 24.839844-6.515625 36.492188-28.34375 4.582031-53.832031 18.992187-72.511719 41.191406-7 8.316406-12.757812 17.390625-17.207031 26.992187-2.921875.242188-5.875.367188-8.804687.367188zm0 0"/><path d="m391.941406.5c-66.199218 0-120.054687 53.855469-120.054687 120.058594 0 66.199218 53.855469 120.054687 120.054687 120.054687 66.199219 0 120.058594-53.855469 120.058594-120.054687 0-66.203125-53.859375-120.058594-120.058594-120.058594zm0 225.097656c-57.917968 0-105.039062-47.121094-105.039062-105.039062 0-57.921875 47.121094-105.042969 105.039062-105.042969 57.921875 0 105.042969 47.121094 105.042969 105.042969 0 57.917968-47.121094 105.039062-105.042969 105.039062zm0 0"/><path d="m167.003906 369.738281c0 39.105469 31.816406 70.917969 70.921875 70.917969s70.921875-31.8125 70.921875-70.917969-31.816406-70.921875-70.921875-70.921875-70.921875 31.816406-70.921875 70.921875zm126.824219 0c0 30.824219-25.078125 55.902344-55.902344 55.902344-30.828125 0-55.90625-25.078125-55.90625-55.902344 0-30.828125 25.078125-55.90625 55.90625-55.90625 30.824219 0 55.902344 25.078125 55.902344 55.90625zm0 0"/><path d="m190.976562 195.027344c0-39.105469-31.8125-70.921875-70.917968-70.921875-39.109375 0-70.921875 31.816406-70.921875 70.921875 0 39.105468 31.8125 70.921875 70.921875 70.921875 39.105468 0 70.917968-31.816407 70.917968-70.921875zm-70.917968 55.90625c-30.828125 0-55.90625-25.082032-55.90625-55.90625 0-30.828125 25.078125-55.90625 55.90625-55.90625 30.824218 0 55.902344 25.078125 55.902344 55.90625 0 30.824218-25.078126 55.90625-55.902344 55.90625zm0 0"/><path d="m391.941406 69.808594c-13.226562 0-26.132812 3.667968-37.320312 10.605468-3.523438 2.183594-4.609375 6.8125-2.425782 10.335938 2.1875 3.523438 6.8125 4.613281 10.335938 2.425781 8.8125-5.464843 18.984375-8.351562 29.410156-8.351562 30.828125 0 55.90625 25.078125 55.90625 55.90625 0 30.824219-25.078125 55.902343-55.90625 55.902343-30.824218 0-55.902344-25.078124-55.902344-55.902343 0-8.789063 1.976563-17.191407 5.875-24.984375 1.855469-3.707032.355469-8.21875-3.351562-10.074219-3.710938-1.855469-8.21875-.355469-10.078125 3.355469-4.953125 9.894531-7.460937 20.5625-7.460937 31.703125 0 39.105469 31.8125 70.917969 70.917968 70.917969 39.109375 0 70.921875-31.8125 70.921875-70.917969 0-39.109375-31.816406-70.921875-70.921875-70.921875zm0 0"/><path d="m232.960938 384.957031h-19.511719c-.589844 0-.589844-.515625-.296875-.808593 3.535156-3.609376 8.175781-6.703126 12.300781-10.089844 5.667969-4.640625 10.382813-9.5 10.382813-17.230469 0-10.457031-8.175782-15.242187-18.042969-15.242187-8.320313 0-15.90625 4.859374-16.492188 14.0625 0 2.578124 1.25 3.609374 3.679688 3.832031 2.355469.292969 4.714843-.515625 5.300781-3.09375.957031-4.125 3.832031-6.1875 7.511719-6.1875 5.15625 0 8.175781 2.796875 8.175781 7.734375 0 4.417968-4.347656 8.464844-8.542969 11.707031-5.15625 3.976563-9.941406 7.660156-14.285156 12.667969-1.03125 1.25-2.429687 2.945312-2.429687 5.890625 0 4.34375 1.101562 5.59375 4.933593 5.59375h27.320313c2.429687 0 3.09375-2.207031 3.09375-4.417969-.003906-2.210938-.667969-4.417969-3.097656-4.417969zm0 0"/><path d="m259.175781 394.53125c10.382813 0 17.96875-7.953125 17.96875-18.042969 0-9.867187-6.480469-17.597656-16.421875-17.597656-3.09375 0-6.40625.808594-8.835937 2.648437 2.503906-7.140624 9.574219-11.191406 16.125-12.960937 2.578125-.734375 3.609375-2.648437 2.210937-5.007813-1.398437-2.355468-3.757812-3.015624-6.332031-2.429687-13.773437 3.242187-22.683594 16.054687-22.683594 30.265625.003907 12.152344 4.640625 23.125 17.96875 23.125zm.074219-27.101562c5.820312 0 8.101562 3.832031 8.101562 9.28125 0 4.933593-2.578124 9.941406-8.246093 9.941406-5.304688 0-7.878907-5.230469-7.878907-9.722656-.003906-4.710938 2.5-9.5 8.023438-9.5zm0 0"/><path d="m391.644531 158.585938c-4.269531 0-6.480469-1.839844-8.613281-5.300782-1.472656-2.28125-3.757812-2.503906-6.1875-1.398437-2.574219 1.175781-3.238281 3.019531-2.132812 5.449219 2.945312 6.773437 9.570312 9.570312 16.785156 9.570312 10.679687 0 18.117187-6.996094 18.191406-17.671875.148438-13.695313-10.308594-18.628906-22.679688-16.273437-1.476562.292968-2.359374 0-2.0625-1.839844l.882813-6.261719c.21875-1.101563.292969-1.472656 1.398437-1.472656h15.242188c2.503906 0 3.09375-2.28125 3.09375-4.492188 0-2.207031-.589844-4.34375-3.09375-4.34375h-19.882812c-4.269532 0-5.152344 1.695313-5.816407 6.628907l-1.914062 14.582031c-.738281 5.078125 4.046875 6.699219 8.027343 5.300781 7.65625-2.796875 17.007813-.441406 16.933594 8.617188.003906 4.785156-2.941406 8.90625-8.171875 8.90625zm0 0"/><path d="m122.625 188.289062c-.515625-.074218-.660156-.589843-.367188-.882812l10.308594-10.164062c.957032-1.101563 1.914063-2.207032 1.988282-3.976563.074218-2.5-.441407-4.417969-2.945313-4.417969h-25.332031c-2.503906 0-3.164063 2.136719-3.164063 4.417969 0 2.210937.660157 4.347656 3.164063 4.347656h14.875c-1.105469.957031-1.988282 1.691407-2.871094 2.796875l-6.996094 7.511719c-1.25 1.398437-1.988281 3.238281-1.175781 5.152344.585937 1.769531 2.28125 2.945312 4.046875 2.726562 6.554688-.8125 14.140625.21875 13.847656 8.394531-.148437 4.859376-3.242187 8.542969-8.398437 8.542969-4.269531 0-6.847657-1.472656-8.761719-5.230469-1.03125-2.28125-3.460938-2.574218-5.742188-1.691406-2.578124 1.101563-3.535156 3.460938-2.359374 6.035156 2.949218 6.554688 9.429687 9.28125 16.644531 9.351563 10.601562 0 18.480469-6.992187 18.480469-17.746094.074218-8.613281-6.109376-14.875-15.242188-15.167969zm0 0"/></svg>