<?xml version="1.0" encoding="iso-8859-1"?>
<!-- Generator: Adobe Illustrator 19.0.0, SVG Export Plug-In . SVG Version: 6.00 Build 0)  -->
<svg version="1.1" id="Capa_1" xmlns="http://www.w3.org/2000/svg" xmlns:xlink="http://www.w3.org/1999/xlink" x="0px" y="0px"
	 viewBox="0 0 512.048 512.048" style="enable-background:new 0 0 512.048 512.048;" xml:space="preserve">
<g transform="translate(0 -1)">
	<path style="fill:#FDD7AD;" d="M397.266,115.807v256c0.016,74.586-57.973,136.324-132.414,140.977
		c-2.914,0.177-5.825,0.265-8.828,0.265l-8.828-0.265c-74.48-4.569-132.515-66.357-132.414-140.977l0-256H397.266z"/>
	<g>
		<path style="fill:#CBB292;" d="M256.024,407.117c-24.365-0.029-44.109-19.773-44.138-44.138c0-4.875,3.952-8.828,8.828-8.828
			s8.828,3.952,8.828,8.828c0,14.626,11.857,26.483,26.483,26.483c14.626,0,26.483-11.857,26.483-26.483
			c0-4.875,3.952-8.828,8.828-8.828s8.828,3.952,8.828,8.828C300.133,387.344,280.389,407.089,256.024,407.117z"/>
		<path style="fill:#CBB292;" d="M264.852,398.29v114.494c-2.914,0.177-5.825,0.265-8.828,0.265l-8.828-0.265V398.29
			c0-4.875,3.952-8.828,8.828-8.828S264.852,393.414,264.852,398.29z"/>
	</g>
	<g>
		<circle style="fill:#2C2F38;" cx="194.231" cy="239.393" r="26.483"/>
		<circle style="fill:#2C2F38;" cx="317.817" cy="239.393" r="26.483"/>
	</g>
	<g>
		<path style="fill:#CBB292;" d="M502.152,268.105c-0.457,4.047-3.651,7.242-7.699,7.699c-16.504,1.863-59.271,3.965-83.208-19.972
			c-30.097-30.097-19.029-89.963-19.029-89.963s59.866-11.069,89.963,19.029C506.117,208.834,504.015,251.601,502.152,268.105z"/>
		<path style="fill:#CBB292;" d="M9.897,268.105c0.457,4.047,3.651,7.242,7.699,7.699c16.504,1.863,59.271,3.965,83.208-19.972
			c30.097-30.097,19.029-89.963,19.029-89.963S59.966,154.8,29.868,184.897C5.931,208.834,8.033,251.601,9.897,268.105z"/>
	</g>
	<path style="fill:#D1D4D1;" d="M432.576,115.807c-0.005,22.451-14.161,42.46-35.329,49.94c-21.168,7.479-44.752,0.804-58.861-16.66
		c-9.41,11.657-23.319,18.781-38.278,19.606c-14.959,0.825-29.566-4.728-40.201-15.28c-1.412-1.413-2.648-2.825-3.884-4.326
		c-10.046,12.449-25.184,19.686-41.181,19.686c-15.997,0-31.135-7.237-41.181-19.686c-14.638,18.124-39.397,24.558-61.006,15.854
		c-21.609-8.704-34.996-30.504-32.985-53.713s18.949-42.381,41.733-47.239c-7.614-24.458,5.099-50.621,29.032-59.751
		s50.841,1.92,61.451,25.235c7.866-17.31,25.124-28.425,44.138-28.425s36.272,11.114,44.138,28.425
		C310.756,6.132,337.68-4.94,361.629,4.196s36.659,35.326,29.016,59.793C415.074,69.243,432.533,90.819,432.576,115.807z"/>
</g>
<g>
</g>
<g>
</g>
<g>
</g>
<g>
</g>
<g>
</g>
<g>
</g>
<g>
</g>
<g>
</g>
<g>
</g>
<g>
</g>
<g>
</g>
<g>
</g>
<g>
</g>
<g>
</g>
<g>
</g>
</svg>
